<svg width="30" height="21" viewBox="0 0 30 21" fill="none" xmlns="http://www.w3.org/2000/svg">
<path fill-rule="evenodd" clip-rule="evenodd" d="M21.2897 6.82681C20.9204 6.46122 20.3223 6.46122 19.9521 6.82681L17.7961 8.98275L15.6972 6.88299C15.3317 6.51741 14.7374 6.51741 14.3708 6.88299C14.0043 7.24858 14.0043 7.84855 14.3708 8.21413L16.4696 10.3045L14.3436 12.4324C13.9743 12.798 13.9743 13.3979 14.3436 13.7728C14.7129 14.1384 15.3119 14.1384 15.6813 13.7728L17.8073 11.645L19.9061 13.7448C20.2727 14.1104 20.8669 14.1104 21.2325 13.7448C21.6 13.3792 21.6 12.7792 21.2325 12.4136L19.1337 10.3233L21.2897 8.16722C21.66 7.79226 21.66 7.20177 21.2897 6.82681ZM28.1233 16.8757C28.1233 17.9068 27.2834 18.7504 26.2466 18.7504H9.81507L2.17436 10.2951L9.78789 1.87734H26.2466C27.2834 1.87734 28.1233 2.72099 28.1233 3.75213V16.8757ZM26.2466 0.0025489H9.42515C9.16268 -0.016199 8.89456 0.068194 8.69396 0.265047L0.270508 9.58269C0.072718 9.77955 -0.0125731 10.042 0.00148787 10.2951C-0.0125731 10.5576 0.072718 10.8201 0.270508 11.0169L8.69396 20.3346C8.87769 20.5127 9.11767 20.6065 9.35764 20.6065V20.6252H26.2466C28.3192 20.6252 30 18.9473 30 16.8757V3.75213C30 1.68048 28.3192 0.0025489 26.2466 0.0025489Z" fill="#D5D5D5"/>
</svg>
