<svg width="30" height="32" viewBox="0 0 30 32" fill="none" xmlns="http://www.w3.org/2000/svg">
<path fill-rule="evenodd" clip-rule="evenodd" d="M17.8086 0.243584C17.2239 7.15256e-08 16.4826 0 15 0C13.5174 0 12.776 7.15256e-08 12.1914 0.243584C11.4117 0.568368 10.7922 1.19133 10.4693 1.97541C10.3219 2.33334 10.2642 2.7496 10.2416 3.35678C10.2084 4.24909 9.7534 5.07502 8.98447 5.52149C8.21554 5.96794 7.27679 5.95126 6.49182 5.53402C5.95764 5.25008 5.57034 5.09219 5.1884 5.04163C4.35171 4.93085 3.50554 5.15886 2.83604 5.67552C2.3339 6.06301 1.96324 6.70864 1.22194 7.99989C0.480643 9.29115 0.110002 9.93677 0.0273911 10.5679C-0.0827719 11.4093 0.143965 12.2603 0.657706 12.9336C0.892195 13.241 1.22174 13.4992 1.73321 13.8224C2.48512 14.2976 2.96892 15.107 2.96887 16C2.96883 16.893 2.48504 17.7022 1.73321 18.1773C1.22166 18.5006 0.892053 18.759 0.657548 19.0664C0.143807 19.7397 -0.0829139 20.5906 0.0272334 21.432C0.109844 22.063 0.480501 22.7088 1.22178 24C1.96308 25.2912 2.33374 25.937 2.83588 26.3243C3.50538 26.841 4.35156 27.069 5.18824 26.9582C5.57017 26.9077 5.95744 26.7498 6.49156 26.4659C7.2766 26.0486 8.21541 26.032 8.98439 26.4784C9.75336 26.925 10.2084 27.7509 10.2416 28.6434C10.2642 29.2504 10.3219 29.6667 10.4693 30.0246C10.7922 30.8086 11.4117 31.4317 12.1914 31.7565C12.776 32 13.5174 32 15 32C16.4826 32 17.2239 32 17.8086 31.7565C18.5883 31.4317 19.2077 30.8086 19.5306 30.0246C19.6781 29.6667 19.7359 29.2504 19.7584 28.6432C19.7916 27.7509 20.2465 26.925 21.0154 26.4784C21.7844 26.0318 22.7232 26.0486 23.5083 26.4659C24.0424 26.7498 24.4296 26.9075 24.8116 26.9581C25.6482 27.069 26.4944 26.841 27.1639 26.3243C27.6661 25.9368 28.0367 25.2912 28.778 23.9998C29.5193 22.7086 29.8899 22.063 29.9727 21.432C30.0827 20.5906 29.856 19.7395 29.3423 19.0662C29.1077 18.7589 28.7782 18.5005 28.2666 18.1773C27.5149 17.7022 27.0311 16.8928 27.0311 15.9998C27.0311 15.1069 27.5149 14.2978 28.2666 13.8227C28.7783 13.4994 29.1079 13.2411 29.3425 12.9336C29.8561 12.2604 30.0829 11.4094 29.9728 10.568C29.8901 9.93688 29.5195 9.29125 28.7782 8C28.0369 6.70875 27.6663 6.06312 27.164 5.67563C26.4945 5.15898 25.6484 4.93096 24.8117 5.04174C24.4298 5.0923 24.0424 5.25018 23.5084 5.53408C22.7234 5.95134 21.7846 5.96803 21.0156 5.52154C20.2467 5.07506 19.7916 4.24906 19.7583 3.3567C19.7357 2.74957 19.6781 2.33333 19.5306 1.97541C19.2077 1.19133 18.5883 0.568368 17.8086 0.243584ZM15 20.8C17.636 20.8 19.7728 18.651 19.7728 16C19.7728 13.349 17.636 11.2 15 11.2C12.3639 11.2 10.2271 13.349 10.2271 16C10.2271 18.651 12.3639 20.8 15 20.8Z" fill="#586AED"/>
</svg>
